<svg width="46" height="46" viewBox="0 0 46 46" fill="none" xmlns="http://www.w3.org/2000/svg">
<path d="M41.4629 12.7399C40.8608 11.3457 39.9925 10.0822 38.9068 9.02034C37.8203 7.95527 36.5393 7.10888 35.1334 6.52718C33.6756 5.9216 32.112 5.61163 30.5334 5.61527C28.3188 5.61527 26.158 6.22171 24.2803 7.36722C23.8311 7.64124 23.4043 7.94222 23 8.27015C22.5957 7.94222 22.1689 7.64124 21.7197 7.36722C19.842 6.22171 17.6812 5.61527 15.4666 5.61527C13.8719 5.61527 12.3266 5.92073 10.8666 6.52718C9.45605 7.11116 8.18477 7.9512 7.09316 9.02034C6.00604 10.081 5.13762 11.3448 4.53711 12.7399C3.9127 14.1909 3.59375 15.7317 3.59375 17.3174C3.59375 18.8133 3.89922 20.3721 4.50566 21.9578C5.01328 23.283 5.74102 24.6576 6.6709 26.0457C8.14434 28.2424 10.1703 30.5334 12.6859 32.8559C16.8547 36.7057 20.983 39.3651 21.1582 39.4729L22.2229 40.1557C22.6945 40.4567 23.301 40.4567 23.7727 40.1557L24.8373 39.4729C25.0125 39.3606 29.1363 36.7057 33.3096 32.8559C35.8252 30.5334 37.8512 28.2424 39.3246 26.0457C40.2545 24.6576 40.9867 23.283 41.4898 21.9578C42.0963 20.3721 42.4018 18.8133 42.4018 17.3174C42.4063 15.7317 42.0873 14.1909 41.4629 12.7399ZM21.7197 32.8559C21.7197 28.2784 21.7197 34.5879 21.7197 30.5C20 35 27.5 29 21.7197 30.5C26.3916 30.5 21.7197 29.5 21.7197 32.8559Z" fill="#0174FC"/>
</svg>
